<?xml version="1.0" standalone="no"?>
<!DOCTYPE svg PUBLIC "-//W3C//DTD SVG 20010904//EN"
 "http://www.w3.org/TR/2001/REC-SVG-20010904/DTD/svg10.dtd">
<svg version="1.0" xmlns="http://www.w3.org/2000/svg"
 width="699.000000pt" height="1280.000000pt" viewBox="0 0 699.000000 1280.000000"
 preserveAspectRatio="xMidYMid meet">
<g transform="translate(0.000000,1280.000000) scale(0.100000,-0.100000)"
fill="#ffffff" stroke="none">
<path d="M3875 12790 c-33 -4 -118 -13 -190 -20 -690 -63 -1381 -322 -1960
-734 -949 -675 -1570 -1733 -1690 -2882 -8 -82 -20 -190 -25 -241 -13 -117
-13 -289 0 -406 5 -51 17 -159 25 -241 133 -1268 873 -2415 1985 -3073 509
-300 1094 -489 1689 -544 80 -8 135 -17 138 -24 5 -16 -266 -513 -402 -735
-29 -47 -81 -134 -117 -195 -36 -60 -89 -148 -118 -195 -29 -47 -89 -146 -135
-220 -261 -429 -247 -410 -303 -410 -47 0 -59 -9 -110 -85 -42 -63 -116 -138
-217 -220 -33 -27 -88 -75 -122 -107 -34 -32 -84 -68 -110 -80 -26 -11 -76
-41 -110 -65 -59 -42 -65 -44 -125 -42 -35 1 -75 -2 -90 -6 -24 -6 -28 -4 -28
12 0 11 9 28 20 38 30 27 24 43 -18 51 -20 4 -40 8 -44 11 -16 9 7 35 51 58
76 38 72 24 72 255 l-1 85 -40 35 c-67 59 -90 152 -50 203 34 43 21 116 -14
76 -23 -27 -36 -15 -43 42 -8 63 -23 78 -39 40 -15 -35 -22 -37 -84 -15 -32
11 -63 14 -105 10 -82 -8 -221 -51 -265 -81 -38 -26 -80 -76 -80 -95 0 -6 -23
-36 -51 -65 -42 -45 -52 -63 -56 -99 -4 -32 -16 -57 -45 -93 -48 -57 -58 -81
-58 -133 0 -40 -16 -64 -50 -75 -11 -4 -29 -24 -40 -46 -22 -43 -57 -65 -120
-75 -45 -7 -43 -21 5 -26 39 -4 46 -39 12 -57 -14 -7 -30 -23 -37 -35 -6 -12
-27 -30 -46 -41 -34 -18 -70 -58 -94 -105 -12 -24 -12 -24 18 4 34 32 126 54
148 35 24 -19 2 -51 -51 -74 -35 -16 -54 -31 -58 -46 -8 -31 -1 -36 21 -16 10
10 33 17 50 17 17 0 42 5 56 11 14 7 32 9 40 6 13 -5 12 -13 -10 -55 l-26 -50
24 -53 23 -54 5 40 c6 50 30 53 44 5 l10 -35 5 40 c5 34 12 43 50 64 34 18 49
36 68 77 23 52 46 69 56 42 2 -7 16 11 31 40 14 28 31 52 36 52 17 0 30 -37
30 -84 0 -38 3 -46 19 -46 23 0 56 -63 46 -88 -4 -9 -8 -69 -10 -132 -4 -127
12 -226 45 -287 11 -21 20 -42 20 -48 0 -5 10 -33 22 -62 l21 -52 -26 -53
c-48 -97 -49 -135 -5 -288 33 -114 44 -141 73 -170 31 -32 35 -41 35 -92 l0
-55 62 -28 c35 -15 86 -35 113 -45 28 -10 109 -39 180 -65 257 -93 362 -123
407 -118 54 6 94 -22 104 -72 5 -26 19 -44 60 -75 76 -57 110 -52 134 23 13
42 27 51 87 61 40 6 44 4 108 -53 98 -87 326 -191 417 -191 49 0 99 -30 170
-102 78 -78 93 -82 175 -42 48 24 62 26 119 21 75 -7 131 13 160 58 15 23 15
27 0 50 -15 23 -23 25 -86 25 -86 0 -96 13 -46 55 25 21 37 38 34 51 -3 17
-13 19 -108 19 -102 0 -105 1 -108 23 -4 26 -45 46 -77 38 -12 -3 -27 -17 -33
-32 -16 -33 -32 -30 -210 42 -198 80 -317 146 -418 231 -46 39 -54 51 -68 108
-9 35 -16 66 -16 69 0 3 23 31 50 62 73 83 69 88 -75 95 -95 4 -129 10 -161
27 -23 12 -44 27 -46 34 -12 31 38 154 237 583 53 116 110 241 126 279 34 79
70 146 79 146 4 0 23 16 43 36 40 40 67 107 67 167 0 29 16 70 61 156 75 141
201 371 279 506 32 55 134 233 227 395 233 406 393 703 393 730 0 23 154 317
245 470 l96 159 42 5 c23 2 105 10 182 16 847 67 1691 433 2344 1016 56 49
101 92 101 97 0 4 -50 -18 -111 -48 -704 -353 -1515 -446 -2283 -261 -605 146
-1138 446 -1581 890 -299 300 -527 631 -695 1010 -417 942 -376 2043 112 2944
410 759 1105 1338 1918 1600 324 105 591 149 946 159 559 15 1083 -101 1578
-348 65 -33 121 -58 123 -56 2 3 -43 45 -99 95 -380 335 -774 580 -1218 755
-267 105 -496 171 -770 221 -122 22 -205 33 -528 66 -116 11 -326 11 -417 0z
m315 -8173 c0 -8 -32 -63 -70 -123 -39 -60 -96 -161 -127 -224 -31 -63 -67
-133 -81 -155 -14 -21 -38 -71 -54 -110 -30 -72 -151 -299 -198 -370 -15 -22
-46 -76 -70 -120 -51 -95 -209 -377 -255 -455 -17 -30 -47 -82 -65 -115 -19
-33 -77 -135 -131 -226 -53 -91 -131 -231 -174 -310 -102 -191 -168 -261 -291
-308 -46 -18 -89 -29 -94 -26 -19 12 -9 44 59 191 38 82 88 198 110 257 33 88
50 119 92 165 l51 56 -7 63 c-6 59 -4 67 26 120 18 32 46 78 63 103 38 54 122
192 241 395 48 83 113 191 143 240 30 50 79 132 108 183 29 50 67 112 84 137
17 25 56 93 86 152 31 60 96 176 145 260 49 84 89 156 89 160 0 4 9 23 20 41
l20 32 140 0 c110 0 140 -3 140 -13z m-1425 -1956 c3 -5 -4 -25 -15 -43 -11
-19 -29 -60 -40 -92 -10 -31 -50 -123 -89 -204 -38 -81 -76 -170 -85 -198 -9
-28 -22 -59 -29 -68 -7 -9 -60 -29 -127 -46 -106 -28 -151 -41 -297 -87 -43
-13 -55 -14 -68 -3 -28 24 -16 49 46 98 202 155 456 393 547 512 36 47 77 97
91 113 25 27 55 35 66 18z m-17 -691 c3 -15 -27 -88 -81 -200 -232 -479 -279
-580 -301 -645 -26 -81 -41 -89 -91 -50 -45 33 -46 66 -5 160 16 39 30 76 30
82 0 21 97 277 163 432 l61 144 69 44 c111 71 149 79 155 33z m-283 -111 c4
-6 -7 -43 -24 -82 -17 -40 -59 -153 -95 -252 -94 -264 -141 -369 -164 -373
-26 -4 -146 101 -179 157 -51 87 -68 208 -35 245 10 12 24 40 31 64 16 57 82
101 221 147 58 19 128 50 155 69 52 36 79 43 90 25z"/>
</g>
</svg>
