<?xml version="1.0" encoding="UTF-8" standalone="no"?>
<!-- Created with Inkscape (http://www.inkscape.org/) -->

<svg
   xmlns:dc="http://purl.org/dc/elements/1.1/"
   xmlns:cc="http://creativecommons.org/ns#"
   xmlns:rdf="http://www.w3.org/1999/02/22-rdf-syntax-ns#"
   xmlns:svg="http://www.w3.org/2000/svg"
   xmlns="http://www.w3.org/2000/svg"
   xmlns:sodipodi="http://sodipodi.sourceforge.net/DTD/sodipodi-0.dtd"
   xmlns:inkscape="http://www.inkscape.org/namespaces/inkscape"
   width="141.95076"
   height="100.78357"
   id="svg2"
   version="1.1"
   inkscape:version="0.48.5 r10040"
   sodipodi:docname="banner-hands.svg">
  <defs
     id="defs4" />
  <sodipodi:namedview
     id="base"
     pagecolor="#ffffff"
     bordercolor="#666666"
     borderopacity="1.0"
     inkscape:pageopacity="0.0"
     inkscape:pageshadow="2"
     inkscape:zoom="2.8"
     inkscape:cx="467.94967"
     inkscape:cy="-7.9180643"
     inkscape:document-units="px"
     inkscape:current-layer="layer1"
     showgrid="false"
     showguides="true"
     inkscape:guide-bbox="true"
     fit-margin-left="10"
     fit-margin-bottom="10"
     fit-margin-top="10"
     fit-margin-right="10"
     inkscape:window-width="3840"
     inkscape:window-height="2047"
     inkscape:window-x="0"
     inkscape:window-y="55"
     inkscape:window-maximized="1" />
  <metadata
     id="metadata7">
    <rdf:RDF>
      <cc:Work
         rdf:about="">
        <dc:format>image/svg+xml</dc:format>
        <dc:type
           rdf:resource="http://purl.org/dc/dcmitype/StillImage" />
        <dc:title></dc:title>
      </cc:Work>
    </rdf:RDF>
  </metadata>
  <g
     inkscape:label="Calque 1"
     inkscape:groupmode="layer"
     id="layer1"
     transform="translate(-147.54422,-205.84392)">
    <path
       style="fill:#f5f5f5;stroke:#000000;stroke-width:1px;stroke-linecap:butt;stroke-linejoin:miter;stroke-opacity:1"
       d="m 165.99646,217.76355 c 35.46459,0.61347 70.95225,0.24712 106.38507,-1.41963 -1.54926,26.78946 1.57813,53.34206 1.70671,79.78357 -36.10113,-1.72858 -72.25165,-0.77929 -108.37624,-1.13571 -1.15837,-25.69693 -2.08305,-53.72919 0.28446,-77.22823 z"
       id="path2985"
       inkscape:connector-curvature="0"
       sodipodi:nodetypes="ccccc" />
    <path
       style="fill:#ffdead;stroke:#000000;stroke-width:1px;stroke-linecap:butt;stroke-linejoin:miter;stroke-opacity:1"
       d="m 169.39079,268.81435 c 0.22141,1.52525 -1.27883,2.64024 -2.6631,2.77116 -1.54345,0.29073 -3.16309,0.29034 -4.61547,0.954 -1.22552,0.42792 -2.99113,0.59674 -3.74525,-0.70994 -0.76954,-1.28994 -0.0922,-3.07781 1.28273,-3.6355 1.15661,-0.73721 2.53291,-0.47546 3.81589,-0.51461 1.67921,-0.0975 3.40032,-0.5889 5.06306,-0.12887 0.50005,0.2115 0.83182,0.72888 0.86214,1.26376 z"
       id="path3005"
       inkscape:connector-curvature="0"
       sodipodi:nodetypes="cccccccc" />
    <path
       style="fill:#ffdead;stroke:#000000;stroke-width:1px;stroke-linecap:butt;stroke-linejoin:miter;stroke-opacity:1"
       d="m 161.99098,277.62985 c -3.95924,1.16981 -4.88233,-4.63584 -0.78812,-4.80624 2.61229,0.0444 7.59552,-2.16378 8.13969,-0.13666 0.76746,2.85892 -4.72138,3.93031 -7.35157,4.9429 z"
       id="path3021"
       inkscape:connector-curvature="0"
       sodipodi:nodetypes="cccc" />
    <path
       style="fill:#ffdead;stroke:#000000;stroke-width:1px;stroke-linecap:butt;stroke-linejoin:miter;stroke-opacity:1"
       d="m 169.67827,264.5937 c 0,2.25103 -2.6096,2.68407 -4.52441,2.65805 -1.77109,-0.14035 -3.84973,0.63298 -5.39321,-0.45707 -1.69555,-1.40121 -0.55235,-4.43577 1.57312,-4.58585 1.18484,0.18631 2.38357,0.49049 3.61252,0.34383 1.82231,-0.12243 4.73198,0.37405 4.73198,2.04104 z"
       id="path3021-4"
       inkscape:connector-curvature="0"
       sodipodi:nodetypes="cccccc" />
    <path
       style="fill:#ffdead;stroke:#000000;stroke-width:1px;stroke-linecap:butt;stroke-linejoin:miter;stroke-opacity:1"
       d="m 267.56388,268.59532 c 0.6326,-3.61299 5.08033,-1.91327 7.51117,-2.91212 3.23329,-1.25466 5.74378,3.37132 2.18222,4.68781 -2.60737,0.57936 -5.31709,-0.10263 -7.96351,-0.1197 -0.87162,-0.087 -1.7821,-0.68125 -1.72988,-1.65599 z"
       id="path3067"
       inkscape:connector-curvature="0" />
    <path
       style="fill:#ffdead;stroke:#000000;stroke-width:1px;stroke-linecap:butt;stroke-linejoin:miter;stroke-opacity:1"
       d="m 274.94687,260.53565 c 3.03465,-1.30108 4.89352,4.27234 1.37848,4.68754 -2.47661,0.10898 -4.91436,0.83913 -7.3595,0.77105 -3.54715,-0.83476 -0.12184,-4.38719 2.08393,-4.37831 1.30713,-0.33212 2.60929,-0.67919 3.89709,-1.08028 z"
       id="path3069"
       inkscape:connector-curvature="0" />
    <path
       style="fill:#ffdead;stroke:#000000;stroke-width:1px;stroke-linecap:butt;stroke-linejoin:miter;stroke-opacity:1"
       d="m 267.53025,272.94414 c 0.746,-3.22049 4.68367,-2.01214 7.0487,-2.16817 3.06256,-0.63166 5.30199,3.73966 2.07309,5.05667 -2.37856,0.37202 -4.75509,-0.57392 -7.11641,-0.83489 -0.90945,-0.28052 -1.9979,-0.99649 -2.00538,-2.05361 z"
       id="path3071"
       inkscape:connector-curvature="0" />
    <text
       xml:space="preserve"
       style="font-size:40px;font-style:normal;font-weight:normal;line-height:125%;letter-spacing:0px;word-spacing:0px;fill:#000000;fill-opacity:1;stroke:none;font-family:Sans"
       x="185.71429"
       y="421.29074"
       id="text3872"
       sodipodi:linespacing="125%"><tspan
         sodipodi:role="line"
         id="tspan3874"
         x="185.71429"
         y="421.29074" /></text>
  </g>
</svg>
