<svg id="visual" viewBox="0 0 675 900" width="675" height="900" xmlns="http://www.w3.org/2000/svg" xmlns:xlink="http://www.w3.org/1999/xlink" version="1.1"><rect x="0" y="0" width="675" height="900" fill="#001220"></rect><g fill="#A7233A"><circle r="82" cx="232" cy="73"></circle><circle r="36" cx="402" cy="154"></circle><circle r="69" cx="651" cy="595"></circle><circle r="67" cx="165" cy="862"></circle><circle r="61" cx="521" cy="698"></circle><circle r="54" cx="235" cy="406"></circle><circle r="47" cx="273" cy="661"></circle><circle r="49" cx="431" cy="319"></circle><circle r="44" cx="672" cy="863"></circle><circle r="36" cx="474" cy="512"></circle><circle r="60" cx="100" cy="638"></circle><circle r="60" cx="625" cy="174"></circle><circle r="77" cx="62" cy="182"></circle><circle r="68" cx="39" cy="441"></circle><circle r="72" cx="442" cy="886"></circle><circle r="58" cx="610" cy="407"></circle><circle r="56" cx="38" cy="14"></circle><circle r="35" cx="542" cy="22"></circle></g></svg>