<?xml version="1.0" standalone="no"?>
<!DOCTYPE svg PUBLIC "-//W3C//DTD SVG 20010904//EN"
 "http://www.w3.org/TR/2001/REC-SVG-20010904/DTD/svg10.dtd">
<svg version="1.0" xmlns="http://www.w3.org/2000/svg"
 width="975.000000pt" height="1280.000000pt" viewBox="0 0 975.000000 1280.000000"
 preserveAspectRatio="xMidYMid meet">
<metadata>
Created by potrace 1.15, written by Peter Selinger 2001-2017
</metadata>
<g transform="translate(0.000000,1280.000000) scale(0.100000,-0.100000)"
fill="#ffffff" stroke="none">
<path d="M6090 12794 c-36 -2 -146 -11 -245 -19 -1742 -149 -3344 -1009 -4446
-2387 -713 -892 -1171 -1949 -1333 -3078 -49 -339 -60 -507 -60 -910 0 -403
11 -571 60 -910 342 -2381 2000 -4376 4284 -5153 468 -159 956 -262 1495 -314
252 -24 848 -24 1100 0 363 35 697 92 1015 173 235 60 1781 517 1772 525 -4 3
-142 45 -307 93 -165 49 -365 108 -445 132 -80 23 -284 84 -455 134 -621 183
-853 269 -1200 445 -559 284 -1004 610 -1445 1061 -424 434 -731 864 -1001
1408 -306 616 -477 1222 -551 1951 -17 172 -17 738 0 910 74 729 245 1335 551
1951 267 538 575 971 991 1397 460 471 932 816 1505 1097 307 150 546 241 975
369 152 45 935 276 1195 352 204 60 199 59 194 63 -2 2 -76 25 -164 50 -88 26
-281 84 -430 127 -1112 329 -1240 365 -1515 418 -201 39 -462 76 -675 96 -161
15 -719 27 -865 19z m309 -948 c-2 -2 -80 -55 -174 -118 -538 -360 -1034 -814
-1436 -1314 -1383 -1720 -1791 -3992 -1087 -6054 273 -798 681 -1508 1237
-2155 47 -55 167 -182 266 -284 338 -345 659 -612 1043 -865 l153 -101 -93 -3
c-108 -4 -367 12 -548 34 -1199 143 -2298 670 -3169 1518 -1208 1179 -1802
2852 -1605 4531 95 814 375 1600 816 2289 936 1462 2484 2387 4208 2515 120 9
396 14 389 7z"/>
</g>
</svg>
