<svg xmlns="http://www.w3.org/2000/svg" version="1.1" xmlns:xlink="http://www.w3.org/1999/xlink" xmlns:svgjs="http://svgjs.dev/svgjs" viewBox="0 0 600 600"><path d="M592.1466064453125,72.25131225585938C497.7748832702637,68.06283124287923,95.15706952412923,51.439791997273765,6.282722473144531,46.335079193115234C-82.59162457784016,41.2303663889567,43.062828063964844,41.49214553833008,58.9005241394043,41.6230354309082C74.73822021484375,41.75392532348633,86.78010241190593,44.371726989746094,101.30889892578125,47.120418548583984C115.83769543965657,49.869110107421875,129.97382609049478,54.973822911580406,146.07330322265625,58.11518478393555C162.17278035481772,61.25654665629069,184.0314178466797,65.83769989013672,197.90576171875,65.96858978271484C211.7801055908203,66.09947967529297,219.3717244466146,61.51832580566406,229.31936645507812,58.9005241394043C239.26700846354166,56.28272247314453,247.1204071044922,53.403141021728516,257.59161376953125,50.26177978515625C268.0628204345703,47.120418548583984,282.32984924316406,40.18324661254883,292.1466064453125,40.0523567199707C301.96336364746094,39.92146682739258,305.3665059407552,45.54973920186361,316.4921569824219,49.4764404296875C327.61780802408856,53.40314165751139,347.38219197591144,63.48167419433594,358.9005126953125,63.61256408691406C370.41883341471356,63.74345397949219,376.3088836669922,51.70156987508138,385.6020812988281,50.26177978515625C394.89527893066406,48.82198969523112,404.05760192871094,53.40314292907715,414.6596984863281,54.97382354736328C425.2617950439453,56.544504165649414,438.2198994954427,58.11518351236979,449.21466064453125,59.68586349487305C460.2094217936198,61.256543477376304,470.28795369466144,63.219892501831055,480.6282653808594,64.39790344238281C490.9685770670573,65.57591438293457,503.0104522705078,67.2774887084961,511.25653076171875,66.7539291381836C519.5026092529297,66.2303695678711,522.9057820638021,61.649216969807945,530.104736328125,61.25654602050781C537.3036905924479,60.86387507120768,547.3822021484375,62.69633356730143,554.4502563476562,64.39790344238281C561.518310546875,66.09947331746419,566.2303365071615,70.15706380208333,572.5130615234375,71.4659652709961C578.7957865397135,72.77486673990886,686.5183296203613,76.43979326883952,592.1466064453125,72.25131225585938C497.7748832702637,68.06283124287923,95.15706952412923,51.439791997273765,6.282722473144531,46.335079193115234" fill="hsl(353, 98%, 41%)" fill-opacity="1"></path><defs><linearGradient id="SvgjsLinearGradient1003"><stop stop-color="hsl(340, 45%, 50%)" offset="0"></stop><stop stop-color="hsl(340, 45%, 80%)" offset="1"></stop></linearGradient><radialGradient id="SvgjsRadialGradient1004"><stop stop-color="hsl(340, 45%, 50%)" offset="0"></stop><stop stop-color="hsl(340, 45%, 80%)" offset="1"></stop></radialGradient></defs></svg>