<?xml version="1.0" standalone="no"?>
<!DOCTYPE svg PUBLIC "-//W3C//DTD SVG 20010904//EN"
 "http://www.w3.org/TR/2001/REC-SVG-20010904/DTD/svg10.dtd">
<svg version="1.0" xmlns="http://www.w3.org/2000/svg"
 width="1280.000000pt" height="1280.000000pt" viewBox="0 0 1280.000000 1280.000000"
 preserveAspectRatio="xMidYMid meet">
<metadata>
Created by potrace 1.15, written by Peter Selinger 2001-2017
</metadata>
<g transform="translate(0.000000,1280.000000) scale(0.100000,-0.100000)"
fill="#ffffff" stroke="none">
<path d="M6262 12628 c-33 -95 -155 -441 -272 -768 -388 -1093 -440 -1239
-440 -1248 0 -4 87 4 194 19 468 66 844 66 1312 0 107 -15 194 -23 194 -19 0
9 -52 155 -440 1248 -117 327 -239 673 -272 768 l-61 172 -77 0 -77 0 -61
-172z m285 -671 c78 -221 196 -555 263 -741 66 -187 118 -341 115 -344 -2 -3
-62 1 -132 8 -71 8 -245 14 -393 14 -148 0 -322 -6 -393 -14 -70 -7 -130 -11
-132 -8 -3 3 49 157 115 344 67 186 185 520 263 741 78 222 144 403 147 403 3
0 69 -181 147 -403z"/>
<path d="M1758 11020 c124 -271 1058 -2249 1063 -2250 4 0 53 62 110 138 298
397 564 663 962 962 76 57 134 107 130 111 -4 4 -125 64 -268 132 -143 69
-624 299 -1070 512 -445 213 -842 403 -882 421 l-72 33 27 -59z m1165 -748
c378 -181 689 -332 690 -335 1 -3 -45 -45 -103 -93 -133 -110 -460 -439 -565
-567 l-79 -97 -17 32 c-32 62 -659 1397 -659 1402 0 9 16 2 733 -342z"/>
<path d="M10995 11041 c-44 -21 -550 -262 -1125 -536 -575 -274 -1057 -503
-1072 -509 -16 -5 -28 -13 -28 -17 0 -4 62 -53 138 -110 397 -298 663 -564
961 -961 57 -76 107 -138 111 -138 4 0 10 8 13 18 2 9 233 496 512 1082 510
1069 576 1210 572 1209 -1 0 -38 -17 -82 -38z m-375 -424 c0 -9 -678 -1428
-683 -1430 -3 -1 -45 45 -93 103 -111 134 -418 441 -550 551 -56 46 -103 88
-103 93 -2 7 1400 683 1422 685 4 1 7 -1 7 -2z"/>
<path d="M6183 10203 l-103 -4 -2 -57 -1 -57 -6 50 c-8 63 -6 63 -198 35 -288
-41 -557 -111 -826 -215 -76 -29 -141 -55 -143 -58 -2 -2 3 -21 11 -42 22 -51
13 -55 -10 -5 -10 22 -22 40 -27 40 -13 0 -299 -150 -419 -220 l-97 -56 25
-44 26 -45 -26 30 c-15 17 -26 33 -27 38 -1 17 -29 2 -138 -77 -103 -74 -312
-233 -336 -256 -5 -5 5 -27 24 -52 l33 -43 -38 37 -39 37 -85 -82 c-107 -104
-235 -239 -285 -300 l-39 -48 24 -27 24 -27 -27 24 c-16 14 -29 23 -31 20
-135 -170 -348 -483 -336 -493 2 -1 21 -13 42 -25 51 -31 47 -35 -8 -9 -24 12
-46 20 -49 17 -19 -20 -246 -506 -246 -526 0 -2 19 -13 43 -24 38 -18 27 -19
-30 -3 -20 5 -25 -4 -66 -133 -58 -176 -120 -413 -112 -421 4 -4 23 -12 43
-19 l37 -12 -45 5 -45 6 -22 -144 c-23 -147 -40 -290 -46 -390 l-4 -57 31 -4
31 -4 -34 -1 -34 -2 7 -242 c3 -134 9 -268 12 -299 l6 -56 52 3 51 3 -50 -11
c-27 -6 -51 -11 -52 -13 -5 -3 58 -332 86 -450 31 -131 26 -126 101 -112 27 5
25 3 -12 -10 -27 -9 -48 -22 -48 -28 0 -30 181 -518 199 -538 4 -4 24 0 45 8
51 22 57 13 7 -10 l-40 -18 50 -99 c41 -81 159 -285 230 -396 7 -12 19 -20 26
-18 7 3 10 -1 7 -9 -8 -20 122 -195 291 -392 l70 -81 30 29 c44 42 56 36 14
-7 l-34 -36 95 -90 c78 -74 217 -198 324 -287 17 -15 21 -13 59 29 41 46 42
39 0 -16 -13 -17 -23 -34 -23 -37 0 -14 311 -219 437 -287 62 -34 63 -34 78
-15 16 19 16 19 5 -2 -10 -21 -5 -25 87 -72 193 -96 444 -195 455 -178 6 9 8
9 8 -1 0 -15 23 -24 175 -68 107 -31 371 -94 393 -94 5 0 14 21 20 48 l11 47
-5 -51 -5 -51 138 -16 c148 -18 355 -37 415 -37 l37 0 4 52 3 53 2 -54 2 -54
173 6 c206 8 417 32 427 48 5 7 9 8 11 1 7 -18 440 74 549 116 14 5 30 11 35
12 33 9 181 62 245 88 78 31 302 131 307 136 2 2 -4 19 -12 39 -19 47 -11 48
12 3 l18 -35 135 78 c102 58 322 194 369 227 2 2 -6 15 -16 31 -35 50 -35 59
-1 21 l33 -38 135 109 c74 60 176 147 225 194 l90 85 -25 28 -25 29 28 -24 27
-25 41 40 c57 54 201 221 284 328 59 76 66 90 52 98 -10 5 -29 20 -45 34 -22
21 -18 20 21 -6 27 -18 50 -30 52 -28 29 30 295 487 295 506 0 5 -18 17 -40
27 -50 22 -47 31 3 10 20 -8 40 -15 45 -15 14 0 222 504 222 539 0 4 -21 15
-47 24 -45 16 -32 16 28 2 25 -6 26 -5 58 117 33 127 74 316 87 402 5 36 3 50
-7 57 -11 7 -11 9 2 9 13 0 18 20 28 98 16 136 33 484 24 493 -4 4 -24 9 -43
12 -33 4 -33 4 8 5 37 2 42 5 42 25 -1 39 -29 349 -40 437 -18 139 -13 130
-68 125 l-47 -4 45 11 c25 6 46 12 47 12 7 5 -75 325 -143 558 -4 13 -10 15
-27 9 -12 -4 -35 -11 -52 -14 -22 -5 -18 -1 17 16 l47 22 -53 130 c-70 174
-182 405 -196 405 -6 0 -9 4 -6 9 10 16 -281 476 -316 497 -5 3 -24 -6 -43
-20 -49 -38 -54 -32 -6 8 l41 35 -139 158 c-76 87 -166 185 -200 218 l-61 59
-42 -39 c-41 -39 -36 -25 9 26 l24 26 -143 121 c-130 110 -312 252 -324 252
-3 0 -32 19 -66 41 -48 33 -62 39 -69 28 -5 -8 -19 -29 -30 -46 -32 -50 -34
-39 -4 13 l28 47 -24 18 c-33 25 -360 191 -439 224 -36 14 -83 34 -105 44 -61
28 -328 116 -439 146 -80 21 -101 24 -107 13 -7 -10 -9 -9 -9 3 0 10 -11 19
-27 21 -16 3 -91 17 -168 31 -77 14 -183 30 -235 37 -52 6 -109 13 -127 16
-31 5 -32 4 -36 -38 l-4 -43 -1 41 -2 41 -127 6 c-71 4 -157 6 -193 5 -36 -1
-111 -4 -167 -5z m-706 -145 c-3 -8 -6 -5 -6 6 -1 11 2 17 5 13 3 -3 4 -12 1
-19z m1324 -168 c680 -89 1287 -339 1774 -728 200 -160 314 -271 516 -502 275
-315 561 -846 679 -1264 105 -374 143 -639 141 -986 -3 -518 -94 -942 -306
-1441 -172 -402 -472 -823 -805 -1127 -358 -328 -741 -565 -1175 -727 -452
-169 -982 -250 -1415 -216 -417 33 -692 92 -1055 226 -757 280 -1417 849
-1805 1555 -35 63 -80 144 -100 180 -45 81 -118 261 -181 450 -153 452 -207
942 -159 1430 54 542 239 1088 516 1525 451 711 1112 1224 1914 1483 203 66
394 109 632 142 199 27 622 27 829 0z m156 -7212 c-3 -8 -6 -5 -6 6 -1 11 2
17 5 13 3 -3 4 -12 1 -19z"/>
<path d="M1910 7164 c-146 -52 -384 -137 -530 -189 -146 -51 -386 -137 -535
-190 -148 -53 -399 -142 -557 -197 l-288 -102 0 -76 0 -77 228 -81 c1165 -413
1436 -510 1712 -608 129 -46 240 -84 246 -84 7 0 5 39 -8 123 -37 252 -49 388
-55 612 -7 271 6 489 45 768 18 127 24 197 18 196 -6 0 -130 -43 -276 -95z
m17 -286 c-29 -287 -31 -602 -5 -871 6 -64 9 -120 6 -123 -3 -2 -106 31 -229
75 -696 247 -844 299 -1041 369 -120 42 -218 79 -218 82 0 3 80 33 178 67 177
61 430 151 997 354 165 59 304 108 309 108 5 1 6 -27 3 -61z"/>
<path d="M10631 7057 c35 -246 49 -439 49 -657 0 -218 -14 -411 -49 -657 -27
-194 -27 -195 -7 -190 12 3 188 64 391 137 204 72 444 158 535 190 91 32 332
118 535 190 204 72 448 159 543 192 l172 61 0 77 0 77 -172 61 c-95 33 -339
120 -543 192 -203 72 -444 158 -535 190 -91 32 -331 118 -535 190 -203 73
-379 134 -391 137 -20 5 -20 4 7 -190z m599 -253 c195 -69 429 -152 520 -184
91 -32 230 -82 310 -110 80 -29 180 -64 223 -78 42 -15 77 -29 77 -32 0 -3
-35 -17 -77 -32 -43 -14 -143 -49 -223 -78 -80 -28 -219 -78 -310 -110 -91
-32 -324 -115 -519 -184 -195 -69 -357 -124 -359 -121 -3 2 0 58 6 122 26 270
24 585 -5 871 -3 34 -4 62 -1 62 2 0 163 -57 358 -126z"/>
<path d="M2300 2939 c-283 -599 -527 -1116 -542 -1149 l-26 -58 61 28 c34 15
420 197 857 404 437 207 926 438 1087 514 161 75 292 140 293 143 0 4 -62 53
-137 110 -398 298 -664 564 -962 962 -57 75 -106 137 -110 137 -3 -1 -238
-491 -521 -1091z m665 561 c103 -124 434 -453 558 -555 l97 -79 -37 -20 c-116
-59 -1386 -656 -1390 -653 -2 3 148 325 333 716 265 561 340 709 349 699 6 -7
47 -56 90 -108z"/>
<path d="M9858 3878 c-279 -371 -544 -636 -925 -926 -84 -64 -153 -119 -153
-123 0 -4 12 -12 28 -17 15 -6 531 -251 1146 -546 616 -295 1121 -535 1122
-533 4 3 -1085 2280 -1095 2290 -4 4 -60 -61 -123 -145z m423 -974 c186 -389
337 -709 335 -711 -3 -3 -1407 665 -1419 676 -4 4 41 47 100 96 139 114 434
409 548 547 49 60 90 106 93 104 2 -3 157 -323 343 -712z"/>
<path d="M5550 2188 c0 -9 52 -155 440 -1248 117 -327 239 -673 272 -768 l61
-172 77 0 77 0 61 172 c33 95 155 441 272 768 388 1093 440 1239 440 1248 0 4
-87 -4 -194 -19 -245 -35 -438 -49 -656 -49 -218 0 -411 14 -656 49 -107 15
-194 23 -194 19z m630 -279 c191 -11 418 -6 623 13 64 6 120 9 122 6 3 -3 -49
-157 -115 -344 -67 -186 -185 -520 -263 -741 -78 -222 -144 -403 -147 -403 -3
0 -69 181 -147 403 -78 221 -196 555 -263 741 -66 186 -120 341 -120 344 0 3
28 2 63 -1 34 -4 145 -12 247 -18z"/>
</g>
</svg>
